<?xml version="1.0" encoding="UTF-8" standalone="no"?>
<!DOCTYPE svg PUBLIC "-//W3C//DTD SVG 1.1//EN" "http://www.w3.org/Graphics/SVG/1.1/DTD/svg11.dtd">
<svg width="100%" height="100%" viewBox="0 0 3851 3851" version="1.1" xmlns="http://www.w3.org/2000/svg" xmlns:xlink="http://www.w3.org/1999/xlink" xml:space="preserve" xmlns:serif="http://www.serif.com/" style="fill-rule:evenodd;clip-rule:evenodd;stroke-linejoin:round;stroke-miterlimit:2;">
    <g id="body" transform="matrix(5.72119e-18,1,-1,5.72119e-18,1993.22,2251.78)">
        <path d="M1449.43,-1255.63C1449.43,-544.765 1447.63,167.505 1467.24,393.645C1479.86,539.145 1501.13,618.152 1538.06,676.403C1554.22,677.767 1568.62,683.633 1579.33,693.866C1591.1,705.11 1598.62,721.713 1598.62,744.107C1598.62,772.547 1597.86,796.619 1596.58,818.45C1595.33,839.754 1593.58,858.924 1591.55,877.934C1588.15,909.691 1583.95,940.999 1579.96,981.212C1578.21,998.837 1576.5,1018.18 1574.92,1040.03C1572.8,1069.26 1570.91,1102.96 1569.46,1143.05C1568.79,1161.32 1568.22,1180.9 1567.75,1201.98C1567.07,1232.95 1566.62,1267.16 1566.47,1305.17C1566.43,1314.75 1566.41,1324.58 1566.41,1334.66C1566.41,1344.74 1566.43,1354.56 1566.47,1364.15C1566.62,1402.14 1567.07,1436.35 1567.75,1467.34C1568.22,1488.41 1568.79,1507.99 1569.45,1526.26C1570.9,1566.31 1572.78,1600.03 1574.89,1629.29C1576.46,1651.13 1578.16,1670.48 1579.9,1688.11C1583.88,1728.4 1588.07,1759.76 1591.47,1791.38C1593.52,1810.45 1595.28,1829.62 1596.55,1850.86C1597.85,1872.72 1598.62,1896.78 1598.62,1925.21C1598.62,1948.18 1590.71,1965.06 1578.41,1976.31C1566.15,1987.52 1549.3,1993.22 1530.6,1993.22L1295.72,1993.22C1277.02,1993.22 1260.17,1987.52 1247.92,1976.31C1235.61,1965.06 1227.71,1948.18 1227.71,1925.21C1227.71,1896.78 1228.48,1872.72 1229.78,1850.86C1231.04,1829.62 1232.81,1810.45 1234.86,1791.38C1238.26,1759.76 1242.45,1728.4 1246.42,1688.11C1248.16,1670.48 1249.86,1651.13 1251.43,1629.29C1253.54,1600.03 1255.42,1566.31 1256.87,1526.26C1257.54,1507.99 1258.11,1488.41 1258.57,1467.34C1259.26,1436.35 1259.71,1402.14 1259.86,1364.15C1259.9,1354.56 1259.92,1344.74 1259.92,1334.66C1259.92,1324.58 1259.9,1314.75 1259.86,1305.17C1259.71,1267.16 1259.26,1232.95 1258.57,1201.98C1258.11,1180.9 1257.53,1161.32 1256.87,1143.05C1255.41,1102.96 1253.52,1069.26 1251.41,1040.03C1249.83,1018.18 1248.12,998.837 1246.37,981.212C1242.38,940.999 1238.17,909.691 1234.78,877.934C1232.74,858.924 1230.99,839.754 1229.74,818.45C1228.46,796.619 1227.71,772.547 1227.71,744.107C1227.71,721.713 1235.23,705.11 1246.99,693.866C1257.7,683.633 1272.1,677.767 1288.27,676.403C1325.19,618.152 1346.46,539.145 1359.08,393.645C1378.7,167.505 1376.89,-544.765 1376.89,-1255.63C1357.31,-1267.79 1344.25,-1289.49 1344.25,-1314.22C1344.25,-1352.25 1375.13,-1383.13 1413.16,-1383.13C1451.19,-1383.13 1482.07,-1352.25 1482.07,-1314.22C1482.07,-1289.49 1469.02,-1267.79 1449.43,-1255.63Z" style="fill:rgb(0,16,149);"/>
    </g>
</svg>
