<?xml version="1.0" encoding="UTF-8" standalone="no"?>
<!DOCTYPE svg PUBLIC "-//W3C//DTD SVG 1.1//EN" "http://www.w3.org/Graphics/SVG/1.1/DTD/svg11.dtd">
<svg width="100%" height="100%" viewBox="0 0 3851 3851" version="1.1" xmlns="http://www.w3.org/2000/svg" xmlns:xlink="http://www.w3.org/1999/xlink" xml:space="preserve" xmlns:serif="http://www.serif.com/" style="fill-rule:evenodd;clip-rule:evenodd;stroke-linejoin:round;stroke-miterlimit:2;">
    <path id="outline" d="M159.549,3549.55C159.549,3540.18 152.244,3532.42 142.885,3531.87C120.868,3530.56 96.637,3529.78 68.013,3529.78C58.229,3529.78 50.297,3537.71 50.297,3547.5L50.297,3782.38C50.297,3792.16 58.229,3800.1 68.013,3800.1C96.637,3800.1 120.868,3799.32 142.885,3798.01C152.244,3797.45 159.549,3789.7 159.549,3780.33L159.549,3549.55ZM1157.58,3780.36C1157.58,3789.74 1164.89,3797.5 1174.26,3798.05C1196.24,3799.33 1220.48,3800.1 1249.12,3800.1C1258.9,3800.1 1266.83,3792.16 1266.83,3782.38L1266.83,3547.5C1266.83,3537.71 1258.9,3529.78 1249.12,3529.78C1220.48,3529.78 1196.24,3530.54 1174.26,3531.83C1164.89,3532.38 1157.58,3540.14 1157.58,3549.52L1157.58,3780.36ZM995.179,3763.76C995.179,3772.87 1002.08,3780.49 1011.15,3781.39C1051.33,3785.38 1082.62,3789.58 1114.36,3792.98C1119.36,3793.51 1124.35,3791.9 1128.08,3788.54C1131.82,3785.18 1133.96,3780.39 1133.96,3775.36L1133.96,3554.51C1133.96,3549.49 1131.82,3544.7 1128.08,3541.34C1124.35,3537.98 1119.36,3536.36 1114.36,3536.9C1082.62,3540.3 1051.33,3544.49 1011.15,3548.48C1002.08,3549.38 995.179,3557.01 995.179,3566.11L995.179,3763.76ZM183.171,3775.28C183.171,3780.31 185.308,3785.1 189.049,3788.46C192.79,3791.82 197.782,3793.43 202.782,3792.89C234.373,3789.5 265.713,3785.31 305.973,3781.34C315.04,3780.44 321.95,3772.82 321.95,3763.71L321.95,3566.17C321.95,3557.06 315.04,3549.43 305.973,3548.54C265.713,3544.57 234.373,3540.38 202.782,3536.98C197.782,3536.45 192.79,3538.06 189.049,3541.42C185.308,3544.78 183.171,3549.57 183.171,3554.6L183.171,3775.28ZM670.376,3750.23C670.376,3759.99 678.264,3767.91 688.021,3767.95C725.971,3768.1 760.125,3768.55 791.048,3769.23C795.813,3769.34 800.42,3767.51 803.827,3764.18C807.235,3760.85 809.155,3756.28 809.155,3751.52L809.155,3578.36C809.155,3573.59 807.235,3569.03 803.827,3565.7C800.42,3562.36 795.813,3560.54 791.048,3560.65C760.125,3561.33 725.971,3561.78 688.021,3561.93C678.264,3561.97 670.376,3569.89 670.376,3579.65L670.376,3750.23ZM1481.04,3673.78C1485.37,3673.08 1488.56,3669.33 1488.56,3664.94C1488.56,3660.55 1485.37,3656.8 1481.04,3656.1C1409.38,3644.44 1357.35,3628.55 1315.42,3607.45C1312.64,3606.05 1309.34,3606.19 1306.69,3607.82C1304.05,3609.45 1302.43,3612.34 1302.43,3615.45L1302.43,3714.43C1302.43,3717.53 1304.05,3720.42 1306.69,3722.05C1309.34,3723.68 1312.64,3723.83 1315.42,3722.43C1357.35,3701.33 1409.38,3685.44 1481.04,3673.78ZM832.777,3753.22C832.777,3762.76 840.322,3770.58 849.85,3770.93C889.817,3772.38 923.425,3774.27 952.561,3776.38C957.469,3776.73 962.304,3775.03 965.907,3771.68C969.51,3768.33 971.557,3763.62 971.557,3758.7L971.557,3571.17C971.557,3566.25 969.51,3561.55 965.907,3558.2C962.304,3554.85 957.469,3553.15 952.561,3553.5C923.425,3555.61 889.817,3557.49 849.85,3558.95C840.322,3559.29 832.777,3567.12 832.777,3576.65L832.777,3753.22ZM345.573,3758.68C345.573,3763.6 347.618,3768.29 351.22,3771.64C354.821,3775 359.654,3776.7 364.561,3776.35C393.731,3774.25 427.352,3772.37 467.277,3770.92C476.806,3770.58 484.352,3762.75 484.352,3753.22L484.352,3576.66C484.352,3567.12 476.806,3559.3 467.277,3558.95C427.352,3557.51 393.731,3555.63 364.561,3553.53C359.654,3553.18 354.821,3554.88 351.22,3558.23C347.618,3561.58 345.573,3566.28 345.573,3571.2L345.573,3758.68ZM507.974,3751.52C507.974,3756.28 509.895,3760.85 513.302,3764.18C516.709,3767.51 521.316,3769.33 526.081,3769.23C557.021,3768.55 591.177,3768.1 629.108,3767.95C638.865,3767.91 646.754,3759.99 646.754,3750.23L646.754,3579.65C646.754,3569.89 638.865,3561.97 629.108,3561.93C591.177,3561.78 557.021,3561.33 526.081,3560.65C521.316,3560.54 516.709,3562.36 513.302,3565.7C509.895,3569.03 507.974,3573.6 507.974,3578.36L507.974,3751.52Z" style="fill:rgb(219,0,255);"/>
</svg>
