<?xml version="1.0" encoding="UTF-8" standalone="no"?>
<!DOCTYPE svg PUBLIC "-//W3C//DTD SVG 1.1//EN" "http://www.w3.org/Graphics/SVG/1.1/DTD/svg11.dtd">
<svg width="100%" height="100%" viewBox="0 0 202 202" version="1.1" xmlns="http://www.w3.org/2000/svg" xmlns:xlink="http://www.w3.org/1999/xlink" xml:space="preserve" xmlns:serif="http://www.serif.com/" style="fill-rule:evenodd;clip-rule:evenodd;stroke-linecap:round;stroke-linejoin:round;stroke-miterlimit:1.5;">
    <g transform="matrix(1,0,0,1,-222,-475)">
        <g id="Artboard2" transform="matrix(0.756024,0,0,0.861393,67.5305,475.482)">

            <g transform="matrix(1.32271,0,0,1.16091,-78.9794,0)">
                <path d="M226.315,94.488L249.937,94.488L249.937,106.299L261.748,106.299L261.748,118.11L273.559,118.11L273.559,11.811L297.181,11.811L297.181,82.677L308.992,82.677L308.992,70.866L332.614,70.866L332.614,94.488L344.425,94.488L344.425,70.866L356.236,70.866L356.236,94.488L368.048,94.488L368.048,82.677L379.859,82.677L379.859,141.732L368.048,141.732L368.048,165.354L356.236,165.354L356.236,118.255L344.425,118.255L344.425,165.499L356.236,165.499L356.236,188.976L344.425,188.976L344.425,177.165L332.614,177.165L332.614,188.976L285.37,188.976L285.37,177.165L273.559,177.165L273.559,165.354L261.748,165.354L261.748,153.543L249.937,153.543L249.937,129.921L238.126,129.921L238.126,118.11L226.315,118.11L226.315,94.488ZM308.992,118.255L297.181,118.255L297.181,165.499L308.992,165.499L308.992,118.255ZM332.614,118.255L320.803,118.255L320.803,165.499L332.614,165.499L332.614,118.255Z" style="fill:rgb(0,255,39);stroke:black;stroke-width:4.17px;"/>
            </g>
        </g>
    </g>
</svg>
