<?xml version="1.0" encoding="UTF-8" standalone="no"?>
<!DOCTYPE svg PUBLIC "-//W3C//DTD SVG 1.1//EN" "http://www.w3.org/Graphics/SVG/1.1/DTD/svg11.dtd">
<svg width="100%" height="100%" viewBox="0 0 117 84" version="1.1" xmlns="http://www.w3.org/2000/svg" xmlns:xlink="http://www.w3.org/1999/xlink" xml:space="preserve" xmlns:serif="http://www.serif.com/" style="fill-rule:evenodd;clip-rule:evenodd;stroke-linejoin:round;stroke-miterlimit:2;">
    <g id="Artboard2" transform="matrix(1.39189,0,0,0.313728,3.70875e-14,16.826)">

        
        <g clip-path="url(#_clip1)">
            <g transform="matrix(4.34702e-18,-0.314965,0.0709922,1.9286e-17,-81.4306,520.953)">
                <path d="M975.839,2298.38L1181.47,1464.24C1182.84,1458.7 1186.16,1453.85 1190.82,1450.57L1616.57,1151.33C1623.27,1146.63 1631.92,1145.72 1639.45,1148.94C1646.97,1152.16 1652.3,1159.05 1653.52,1167.14L1824.02,2300.51C1825.04,2307.3 1823.06,2314.2 1818.58,2319.42C1814.11,2324.63 1807.59,2327.64 1800.72,2327.65L998.828,2327.65C991.558,2327.67 984.686,2324.34 980.196,2318.62C975.706,2312.9 974.099,2305.43 975.839,2298.38Z" style="fill:rgb(171,65,65);stroke:black;stroke-width:4.17px;"/>
            </g>
        </g>
    </g>
</svg>
