<?xml version="1.0" encoding="UTF-8" standalone="no"?>
<!DOCTYPE svg PUBLIC "-//W3C//DTD SVG 1.1//EN" "http://www.w3.org/Graphics/SVG/1.1/DTD/svg11.dtd">
<svg width="100%" height="100%" viewBox="0 0 1055 1051" version="1.1" xmlns="http://www.w3.org/2000/svg" xmlns:xlink="http://www.w3.org/1999/xlink" xml:space="preserve" xmlns:serif="http://www.serif.com/" style="fill-rule:evenodd;clip-rule:evenodd;stroke-linecap:round;stroke-linejoin:round;stroke-miterlimit:1.5;">
    <g transform="matrix(1,0,0,1,-1313,-1461)">
        <g id="card-holder-with-token-bin" serif:id="card holder with token bin" transform="matrix(1,0,0,1,568.481,476.837)">
            <rect x="744.617" y="984.6" width="1054.06" height="1050.31" style="fill:none;"/>
            <g transform="matrix(1,0,0,1,681.676,-198.719)">
                <path d="M216.125,2027.91L485.134,2027.91L509.589,1936.65L558.5,1936.65L534.044,2027.91L582.955,2027.91L693.004,1617.21L741.915,1617.21L717.459,1708.48L766.37,1708.48L864.191,1343.4L913.102,1343.4L744.431,1972.89L949.785,2027.91L962.013,2073.55L179.442,2073.55L142.759,1936.65L191.669,1936.65L216.125,2027.91Z" style="fill:rgb(255,144,146);stroke:rgb(35,31,32);stroke-width:4.17px;"/>
            </g>
        </g>
    </g>
</svg>
