<?xml version="1.0" encoding="UTF-8" standalone="no"?>
<!DOCTYPE svg PUBLIC "-//W3C//DTD SVG 1.1//EN" "http://www.w3.org/Graphics/SVG/1.1/DTD/svg11.dtd">
<svg width="100%" height="100%" viewBox="0 0 202 202" version="1.1" xmlns="http://www.w3.org/2000/svg" xmlns:xlink="http://www.w3.org/1999/xlink" xml:space="preserve" xmlns:serif="http://www.serif.com/" style="fill-rule:evenodd;clip-rule:evenodd;stroke-linecap:round;stroke-linejoin:round;stroke-miterlimit:1.5;">
    <g transform="matrix(1,0,0,1,-7,-244)">
        <g id="Artboard1" transform="matrix(1.54545,0,0,1,7.8202,-3404.73)">
                <g transform="matrix(0.0738987,0,0,1.71311,-108.1,1862.08)">
                    <path d="M1566.23,1140.32L1566.23,1147.21L1462.81,1147.21L1462.81,1043.8L1566.23,1043.8L1566.23,1050.69L1669.65,1050.69L1669.65,1057.59L1566.23,1057.59L1566.23,1133.43L1669.65,1133.43L1669.65,1140.32L1566.23,1140.32ZM1669.65,1057.59L1773.07,1057.59L1773.07,1064.48L1669.65,1064.48L1669.65,1057.59ZM1773.07,1064.48L1876.49,1064.48L1876.49,1071.38L1773.07,1071.38L1773.07,1064.48ZM1876.49,1071.38L1979.9,1071.38L1979.9,1078.27L1876.49,1078.27L1876.49,1071.38ZM1979.9,1078.27L2083.32,1078.27L2083.32,1085.16L1979.9,1085.16L1979.9,1078.27ZM2083.32,1085.16L2186.74,1085.16L2186.74,1092.06L2083.32,1092.06L2083.32,1085.16ZM2186.74,1092.06L2290.16,1092.06L2290.16,1098.95L2186.74,1098.95L2186.74,1092.06ZM2290.16,1098.95L2393.57,1098.95L2393.57,1105.85L2290.16,1105.85L2290.16,1098.95ZM2393.57,1105.85L2496.99,1105.85L2496.99,1112.74L2600.41,1112.74L2600.41,1119.64L2186.74,1119.64L2186.74,1126.53L2083.32,1126.53L2083.32,1112.74L2393.57,1112.74L2393.57,1105.85ZM2186.74,1126.53L2290.16,1126.53L2290.16,1140.32L2186.74,1140.32L2186.74,1126.53ZM2290.16,1140.32L2393.57,1140.32L2393.57,1154.11L2290.16,1154.11L2290.16,1140.32ZM2290.16,1154.11L2290.16,1161L2083.32,1161L2083.32,1154.11L2290.16,1154.11ZM2083.32,1154.11L1979.9,1154.11L1979.9,1140.32L2083.32,1140.32L2083.32,1154.11ZM1979.9,1140.32L1876.49,1140.32L1876.49,1126.53L1979.9,1126.53L1979.9,1140.32ZM1876.49,1126.53L1773.07,1126.53L1773.07,1119.64L1876.49,1119.64L1876.49,1126.53ZM1773.07,1126.53L1773.07,1133.43L1669.65,1133.43L1669.65,1126.53L1773.07,1126.53Z" style="fill:rgb(246,0,255);stroke:black;stroke-width:3.43px;"/>
                </g>
            </g>
        </g>

</svg>
