<?xml version="1.0" encoding="UTF-8" standalone="no"?>
<!DOCTYPE svg PUBLIC "-//W3C//DTD SVG 1.1//EN" "http://www.w3.org/Graphics/SVG/1.1/DTD/svg11.dtd">
<svg width="100%" height="100%" viewBox="0 0 202 202" version="1.1" xmlns="http://www.w3.org/2000/svg" xmlns:xlink="http://www.w3.org/1999/xlink" xml:space="preserve" xmlns:serif="http://www.serif.com/" style="fill-rule:evenodd;clip-rule:evenodd;stroke-linecap:round;stroke-linejoin:round;stroke-miterlimit:1.5;">
    <g transform="matrix(1,0,0,1,-7,-478)">
        <g id="Artboard1" transform="matrix(1.54545,0,0,1,7.8202,-3174.12)">
            <g transform="matrix(0.0738987,0,0,1.25628,-100.458,2362.54)">
                <path d="M1566.23,1137.81L1566.23,1147.21L1462.81,1147.21L1462.81,1043.8L1566.23,1043.8L1566.23,1053.2L1669.65,1053.2L1669.65,1062.6L1773.07,1062.6L1773.07,1072L1876.49,1072L1876.49,1081.4L1979.9,1081.4L1979.9,1090.81L2083.32,1090.81L2083.32,1100.21L2186.74,1100.21L2186.74,1109.61L2290.16,1109.61L2290.16,1119.01L1979.9,1119.01L1979.9,1137.81L2083.32,1137.81L2083.32,1156.62L2186.74,1156.62L2186.74,1175.42L1979.9,1175.42L1979.9,1156.62L1876.49,1156.62L1876.49,1137.81L1773.07,1137.81L1773.07,1128.41L1669.65,1128.41L1669.65,1137.81L1566.23,1137.81Z" style="fill:rgb(0,255,39);stroke:black;stroke-width:4.67px;"/>
            </g>
        </g>
    </g>
</svg>
