<?xml version="1.0" encoding="UTF-8" standalone="no"?>
<!DOCTYPE svg PUBLIC "-//W3C//DTD SVG 1.1//EN" "http://www.w3.org/Graphics/SVG/1.1/DTD/svg11.dtd">
<svg width="100%" height="100%" viewBox="0 0 201 201" version="1.1" xmlns="http://www.w3.org/2000/svg" xmlns:xlink="http://www.w3.org/1999/xlink" xml:space="preserve" xmlns:serif="http://www.serif.com/">
    
    <!-- <g transform="matrix(0.647059,0,0,1,0,3649.61)"> -->
    <path d="M23.622,154.15L23.622,165.961L11.811,165.961L11.811,177.772L0,177.772L0,0.606L11.811,0.606L11.811,12.417L23.622,12.417L23.622,24.228L35.433,24.228L35.433,36.039L47.244,36.039L47.244,47.85L59.055,47.85L59.055,59.661L70.866,59.661L70.866,71.472L82.677,71.472L82.677,83.283L94.488,83.283L94.488,95.094L106.299,95.094L106.299,106.906L118.11,106.906L118.11,118.717L129.921,118.717L129.921,130.528L82.677,130.528L82.677,142.339L94.488,142.339L94.488,165.961L106.299,165.961L106.299,189.583L94.488,189.583L94.488,201.394L70.866,201.394L70.866,189.583L59.055,189.583L59.055,165.961L47.244,165.961L47.244,142.339L35.433,142.339L35.433,154.15L23.622,154.15Z" style="fill:rgb(246,0,255);stroke:black;stroke-width:4.17px;"/>
    <!-- </g> -->

</svg>
