<?xml version="1.0" encoding="UTF-8" standalone="no"?>
<!DOCTYPE svg PUBLIC "-//W3C//DTD SVG 1.1//EN" "http://www.w3.org/Graphics/SVG/1.1/DTD/svg11.dtd">
<svg width="100%" height="100%" viewBox="0 0 202 202" version="1.1" xmlns="http://www.w3.org/2000/svg" xmlns:xlink="http://www.w3.org/1999/xlink" xml:space="preserve" xmlns:serif="http://www.serif.com/" style="fill-rule:evenodd;clip-rule:evenodd;stroke-linecap:round;stroke-linejoin:round;stroke-miterlimit:1.5;">
    <g transform="matrix(1,0,0,1,-222,-244)">
        <g id="Artboard2" transform="matrix(0.756024,0,0,0.861393,67.5305,244.881)">
                <path d="M220.37,137.115L204.747,137.115L204.747,109.692L220.37,109.692L220.37,137.115ZM220.37,109.692L220.37,95.981L251.615,95.981L251.615,109.692L220.37,109.692ZM251.615,109.692L267.238,109.692L267.238,13.712L282.86,13.712L282.86,137.115L267.238,137.115L267.238,123.404L251.615,123.404L251.615,109.692ZM282.86,13.712L282.86,0L314.105,0L314.105,13.712L282.86,13.712ZM314.105,13.712L329.728,13.712L329.728,68.558L392.218,68.558L392.218,82.269L376.595,82.269L376.595,109.692L360.973,109.692L360.973,82.269L329.728,82.269L329.728,95.981L314.105,95.981L314.105,13.712ZM392.218,82.269L423.463,82.269L423.463,95.981L407.841,95.981L407.841,109.692L392.218,109.692L392.218,82.269ZM423.463,95.981L439.086,95.981L439.086,164.539L423.463,164.539L423.463,95.981ZM423.463,164.539L423.463,191.962L407.841,191.962L407.841,164.539L423.463,164.539ZM407.841,191.962L407.841,233.096L376.595,233.096L376.595,219.385L392.218,219.385L392.218,192.129L376.595,192.129L376.595,137.283L392.218,137.283L392.218,191.962L407.841,191.962ZM376.595,219.385L360.973,219.385L360.973,205.673L376.595,205.673L376.595,219.385ZM360.973,219.385L360.973,233.096L282.86,233.096L282.86,205.673L298.483,205.673L298.483,219.385L360.973,219.385ZM282.86,205.673L267.238,205.673L267.238,191.962L282.86,191.962L282.86,205.673ZM267.238,191.962L251.615,191.962L251.615,178.25L267.238,178.25L267.238,191.962ZM251.615,178.25L235.992,178.25L235.992,150.827L251.615,150.827L251.615,178.25ZM235.992,150.827L220.37,150.827L220.37,137.115L235.992,137.115L235.992,150.827ZM329.728,137.283L329.728,192.129L314.105,192.129L314.105,137.283L329.728,137.283ZM360.973,137.283L360.973,192.129L345.35,192.129L345.35,137.283L360.973,137.283Z" style="fill:rgb(211,0,255);stroke:black;stroke-width:5.14px;"/>
            </g>
        </g>

</svg>
