<?xml version="1.0" encoding="UTF-8" standalone="no"?>
<!DOCTYPE svg PUBLIC "-//W3C//DTD SVG 1.1//EN" "http://www.w3.org/Graphics/SVG/1.1/DTD/svg11.dtd">
<svg width="100%" height="100%" viewBox="0 0 202 202" version="1.1" xmlns="http://www.w3.org/2000/svg" xmlns:xlink="http://www.w3.org/1999/xlink" xml:space="preserve" xmlns:serif="http://www.serif.com/" style="fill-rule:evenodd;clip-rule:evenodd;stroke-linecap:round;stroke-linejoin:round;stroke-miterlimit:1.5;">
    <g transform="matrix(1,0,0,1,-219,0)">
        <g id="Artboard2" transform="matrix(0.756024,0,0,0.861393,64.8052,0.936712)">
            <g clip-path="url(#_clip1)">
                <g transform="matrix(1.32271,0,0,1.16091,-85.7185,-1.08744)">
                    <path d="M231.41,119.047L219.599,119.047L219.599,95.425L231.41,95.425L231.41,83.614L255.032,83.614L255.032,95.425L266.843,95.425L266.843,12.748L278.654,12.748L278.654,0.937L302.276,0.937L302.276,12.748L314.087,12.748L314.087,59.992L361.331,59.992L361.331,71.803L384.953,71.803L384.953,83.614L396.764,83.614L396.764,142.669L384.953,142.669L384.953,166.291L373.142,166.291L373.142,201.724L349.52,201.724L349.52,189.913L337.709,189.913L337.709,201.724L278.654,201.724L278.654,178.102L266.843,178.102L266.843,166.291L255.032,166.291L255.032,154.48L243.221,154.48L243.221,130.858L231.41,130.858L231.41,119.047Z" style="fill:rgb(211,0,255);stroke:black;stroke-width:4.17px;"/>
                </g>
            </g>
        </g>
    </g>
</svg>
