<?xml version="1.0" encoding="UTF-8" standalone="no"?>
<!DOCTYPE svg PUBLIC "-//W3C//DTD SVG 1.1//EN" "http://www.w3.org/Graphics/SVG/1.1/DTD/svg11.dtd">
<svg width="100%" height="100%" viewBox="0 0 3600 3600" version="1.1" xmlns="http://www.w3.org/2000/svg" xmlns:xlink="http://www.w3.org/1999/xlink" xml:space="preserve" xmlns:serif="http://www.serif.com/" style="fill-rule:evenodd;clip-rule:evenodd;stroke-linecap:round;stroke-linejoin:round;stroke-miterlimit:1.5;">
    <g>
        <g transform="matrix(0.377892,0.92585,-0.92585,0.377892,3156.32,-1807.04)">
            <path d="M2947.73,3594.26C2594.15,3741.12 2206.47,3822.23 1800,3822.23C1393.53,3822.23 1005.85,3741.12 652.266,3594.26C650.507,3593.53 648.749,3592.8 646.991,3592.07C608.79,3576.11 590.739,3532.23 606.662,3494.01L1355.71,1696.29C1363.37,1677.92 1378.01,1663.35 1396.41,1655.78C1414.82,1648.21 1435.48,1648.26 1453.84,1655.93C1560.42,1700.44 1677.36,1725 1800,1725C1922.64,1725 2039.58,1700.44 2146.16,1655.93C2164.52,1648.26 2185.18,1648.21 2203.59,1655.78C2221.99,1663.35 2236.63,1677.92 2244.29,1696.29L2993.34,3494.01C3009.26,3532.23 2991.21,3576.11 2953.01,3592.07C2951.25,3592.8 2949.49,3593.53 2947.73,3594.26Z" style="fill:rgb(255,0,6);"/>
        </g>
        <g transform="matrix(0.377892,0.92585,-0.92585,0.377892,3156.32,-1807.04)">
            <path d="M2918.97,3525C2574.24,3668.18 2196.28,3747.23 1800,3747.23C1403.72,3747.23 1025.76,3668.18 681.034,3525C679.319,3524.29 677.605,3523.57 675.892,3522.86L1424.94,1725.14C1540.42,1773.36 1667.12,1800 1800,1800C1932.88,1800 2059.58,1773.36 2175.06,1725.14L2924.11,3522.86C2922.39,3523.57 2920.68,3524.29 2918.97,3525Z" style="fill:rgb(105,186,201);stroke:black;stroke-width:4.17px;"/>
        </g>
    </g>
    <g transform="matrix(-0.379789,-0.925073,0.925073,-0.379789,529.779,6007.61)">
        <g transform="matrix(1,0,0,1,581.036,149.861)">
            <path d="M2947.73,3594.26C2594.15,3741.12 2206.47,3822.23 1800,3822.23C1393.53,3822.23 1005.85,3741.12 652.266,3594.26C650.507,3593.53 648.749,3592.8 646.991,3592.07C608.79,3576.11 590.739,3532.23 606.662,3494.01L1355.71,1696.29C1363.37,1677.92 1378.01,1663.35 1396.41,1655.78C1414.82,1648.21 1435.48,1648.26 1453.84,1655.93C1560.42,1700.44 1677.36,1725 1800,1725C1922.64,1725 2039.58,1700.44 2146.16,1655.93C2164.52,1648.26 2185.18,1648.21 2203.59,1655.78C2221.99,1663.35 2236.63,1677.92 2244.29,1696.29L2993.34,3494.01C3009.26,3532.23 2991.21,3576.11 2953.01,3592.07C2951.25,3592.8 2949.49,3593.53 2947.73,3594.26Z" style="fill:rgb(255,0,6);"/>
        </g>
        <g transform="matrix(1,0,0,1,581.036,149.861)">
            <path d="M2918.97,3525C2574.24,3668.18 2196.28,3747.23 1800,3747.23C1403.72,3747.23 1025.76,3668.18 681.034,3525C679.319,3524.29 677.605,3523.57 675.892,3522.86L1424.94,1725.14C1540.42,1773.36 1667.12,1800 1800,1800C1932.88,1800 2059.58,1773.36 2175.06,1725.14L2924.11,3522.86C2922.39,3523.57 2920.68,3524.29 2918.97,3525Z" style="fill:rgb(105,186,201);stroke:black;stroke-width:4.17px;"/>
        </g>
    </g>
</svg>
